<?xml version="1.0" encoding="utf-8"?>
<!-- Generator: Adobe Illustrator 17.0.0, SVG Export Plug-In . SVG Version: 6.00 Build 0)  -->
<!DOCTYPE svg PUBLIC "-//W3C//DTD SVG 1.1//EN" "http://www.w3.org/Graphics/SVG/1.1/DTD/svg11.dtd">
<svg version="1.1" xmlns="http://www.w3.org/2000/svg" xmlns:xlink="http://www.w3.org/1999/xlink" x="0px" y="0px" width="800px"
	 height="800px" viewBox="0 0 800 800" enable-background="new 0 0 800 800" xml:space="preserve">
<g id="Background" display="none">
	<rect display="inline" fill="#BFE3E9" width="800" height="800"/>
</g>
<g id="Objects">
	<g>
		<polygon fill="#187594" points="400.882,723.74 400.889,723.77 400.889,723.727 		"/>
		<g>
			<path fill="#A4C865" d="M400.889,511.421c-0.171,0-0.34-0.006-0.511-0.006c-77.782,0-140.774,62.998-140.774,140.712
				c0,77.713,62.991,140.712,140.774,140.712c0.171,0,0.34-0.006,0.511-0.007c77.548-0.275,140.329-63.163,140.329-140.705
				C541.217,574.585,478.436,511.698,400.889,511.421z"/>
			<path fill="#60B9C8" d="M531.994,601.095c0,0-5.662,0.851-7.349,0.123c-1.256-0.542-3.125-2.796-3.688-4.043
				c-0.672-1.49,0.743-5.744-0.706-6.501c-0.952-0.497-3.112,1.211-3.771,2.059c-1.258,1.619-2.028,7.948-2.028,7.948
				s-4.676-3.964-5.446-5.798c-0.53-1.264,0.375-4.245-0.222-5.48c-0.755-1.563-3.987-3.351-5.261-4.529
				c-0.503-0.465-1.311-1.669-1.945-1.93c-1.411-0.581-5.226-1.247-6.106,0c-0.832,1.179,1.002,4.336,1.933,5.437
				c1.357,1.605,5.685,2.803,7.344,4.094c0.367,0.286,1.357,0.895,1.276,1.353c-0.077,0.437-1.357,0.416-1.587,0.795
				c-0.559,0.92,0.65,3.406,0.06,4.307c-0.531,0.809-2.607,1.406-3.571,1.493c-0.78,0.07-2.408-0.237-3.06-0.67
				c-0.689-0.458-2.304-1.982-1.903-2.706c0.602-1.087,3.839,0.796,4.963,0.267c0.509-0.239,1.434-1.253,1.339-1.807
				c-0.561-3.271-9.082-4.721-11.006-7.425c-0.474-0.666-0.054-2.93-0.838-3.162c-1.445-0.428-3.017,3.646-4.47,4.043
				c-1.117,0.305-3.452-1.336-4.538-0.932c-2.652,0.987-6.901,8.97-6.901,8.97s-0.602,2.945-1.353,3.512
				c-0.884,0.668-3.305,0.348-4.411,0.402c-1.63,0.079-4.934,0.39-6.529,0.041c-1.052-0.23-3.259-0.961-3.903-1.825
				c-1.171-1.571-1.36-5.805-1.15-7.753c0.106-0.983,1.401-3.697,1.401-3.697s4.943-1.44,6.643-1.455
				c1.848-0.016,5.701,2.465,7.249,1.455c0.859-0.561,1.427-3.141,0.881-4.01c-0.421-0.669-2.64-0.068-3.077-0.727
				c-0.875-1.319-0.072-5.13,1.054-6.243c1.312-1.296,5.722-0.169,7.289-1.141c1.875-1.162,3.23-6.029,5.098-7.202
				c1.131-0.71,3.933-0.871,5.268-0.884c1.201-0.011,3.555,0.616,4.753,0.704c0.435,0.032,1.46,0.33,1.746,0
				c1.12-1.29,0.522-5.911-0.958-6.764c-1.35-0.779-4.347,2.944-5.781,2.333c-1.253-0.534-0.956-4.216-2.028-5.055
				c-0.666-0.521-3.352-0.468-3.352-0.468s-0.873-2.62-0.628-3.465c0.282-0.972,1.905-2.406,2.74-2.978
				c1.44-0.986,5.185-1.402,6.501-2.549c0.646-0.563,1.676-2.99,1.676-2.99c-24.777-21.828-57.237-35.056-92.753-35.216
				c-0.106,0-0.21-0.004-0.316-0.004c-30.931,0-59.547,10.04-82.823,26.996c0,0,5.386-0.494,7.109-0.056
				c0.877,0.223,2.319,1.435,3.167,1.753c1.429,0.536,4.897,0.2,5.968,1.288c0.419,0.426,0.012,1.957,0.467,2.345
				c1.808,1.54,8.144,2.306,9.493,0.351c0.469-0.68-0.605-2.577-1.287-3.043c-1.741-1.19-7.683,1.735-8.433-0.236
				c-0.243-0.638,1.814-1.211,1.988-1.871c0.148-0.565-0.224-1.884-0.694-2.23c-1.535-1.13-7.025,1.809-7.626,0
				c-0.818-2.463,5.857-5.391,8.32-6.208c1.89-0.628,6.192-0.904,7.966,0c1.42,0.724,2.347,4.395,3.746,5.158
				c1.367,0.746,4.76,0.896,6.219,0.351c1.222-0.456,2.452-3.436,3.74-3.636c0.778-0.121,2.698,0.628,2.82,1.407
				c0.279,1.781-3.495,4.345-5.159,5.039c-1.568,0.654-7.147,0.12-6.794,0.12c0.353,0-0.315,4.076,0.593,4.917
				c1.588,1.471,6.876,0.995,8.654-0.239c0.518-0.36,0.434-1.97,0.947-2.338c1.214-0.871,4.839,0.628,5.967-0.352
				c0.676-0.587,1.214-2.774,0.706-3.511c-0.505-0.734-3.069,0.179-3.515-0.592c-0.422-0.73,0.559-2.583,1.173-3.16
				c0.513-0.482,1.995-0.73,2.694-0.816c2.328-0.286,8.583-1.745,9.373,0.464c0.588,1.643-4.65,3.024-5.172,4.689
				c-0.278,0.888,0.156,2.994,0.838,3.627c0.999,0.926,4.378,1.738,5.388,0.823c1.216-1.103-1.166-5.132-0.353-6.559
				c0.719-1.264,3.764-2.269,5.153-2.696c2.2-0.677,6.87-1.4,9.145-1.054c2.849,0.434,7.905,3.502,10.54,4.669
				c0.672,0.298,2.286,0.575,2.687,1.19c0.687,1.055-0.775,4.045,0,5.037c0.67,0.858,3.783,0.058,4.226,1.053
				c0.459,1.029-1.146,3.402-2.112,3.983c-1.029,0.619-3.601,0-4.801,0c-0.293,0-0.931-0.166-1.173,0
				c-1.009,0.692-0.682,3.996-1.765,4.567c-3.104,1.636-13.208,0.257-13.659-3.222c-0.391-3.014,10.406-2.694,10.732-5.716
				c0.144-1.335-2.807-3.095-4.094-3.478c-2.236-0.665-7.172,0.126-9.258,1.171c-0.26,0.13-0.521,0.793-0.809,0.838
				c-0.008,0.001-0.021-0.017-0.029-0.016c-0.061,0.014-0.11,0.153-0.151,0.2c-0.622,0.731-1.796,2.355-2.663,2.768
				c-0.997,0.475-3.72-0.498-4.4,0.371c-0.343,0.438,0.008,1.76,0.353,2.197c0.257,0.325,1.317,0.281,1.533,0.635
				c0.095,0.155,0.065,0.592-0.06,0.724c-0.62,0.658-2.945-0.133-3.579,0.511c-0.367,0.373,0.12,1.722-0.263,2.079
				c-0.629,0.584-2.765,0.724-3.43,0.181c-0.808-0.661,0.266-3.572-0.616-4.13c-1.359-0.859-4.681,1.226-6.154,1.87
				c-3.334,1.459-11.186,3.986-12.561,7.355c-0.507,1.242,1.412,5.177,1.412,5.177l3.513,2.289c0,0,5.862-0.367,7.027,0.97
				c1.312,1.505-1.52,6.693,0,7.987c0.625,0.532,2.586-0.032,3.244-0.524c1.386-1.036,1.687-5.104,2.993-6.239
				c1.479-1.285,6.312-0.787,7.469-2.368c1.414-1.932-1.068-7.435,0-9.579c0.58-1.165,2.881-2.868,4.154-3.136
				c2.526-0.532,8.561,0.26,10.048,2.37c0.917,1.301-1.768,5.142-0.706,6.329c0.45,0.503,2.043,0.153,2.7,0
				c2.002-0.466,7.378-3.629,7.378-3.629s-0.703,6.521,0.354,8.313c0.366,0.62,1.845,1.125,2.46,1.5
				c0.728,0.444,2.514,1.023,2.914,1.776c0.579,1.089,0.514,3.943-0.227,4.929c-0.426,0.567-2.274,0.338-2.687,0.915
				c-0.499,0.697-0.464,2.708,0,3.429c0.608,0.946,3.503,0.909,4.095,1.866c0.447,0.722,0.466,2.779-0.12,3.393
				c-0.312,0.328-1.456,0.443-1.803,0.152c-0.043-0.036,0.003-0.075-0.012-0.092c-0.378-0.42-1.62-0.499-2.16-0.665
				c-1.419-0.437-4.717-0.615-5.675-1.75c-0.408-0.484,0.147-2.093-0.328-2.511c-0.002-0.002-0.011,0.003-0.012,0
				c-0.206-0.663,1.964-0.96,2.287-1.574c0.266-0.507,0.352-1.838,0-2.289c-0.39-0.5-1.911-0.933-2.461-0.616
				c-0.476,0.274-0.196,1.75-0.609,2.113c-0.819,0.721-3.227,0.759-4.315,0.667c-0.113-0.01-0.339-0.21-0.431-0.144
				c-0.044,0.032,0.035,0.175,0,0.216c-0.247,0.287-1.161,0.402-1.497,0.228c-0.61-0.317-0.723-1.989-1.221-2.463
				c-0.279-0.266-1.035-0.538-1.413-0.616c-0.753-0.157-2.352-0.258-3.076,0c-0.426,0.152-1.206,0.735-1.4,1.143
				c-0.273,0.575-0.372,2.03,0,2.547c0.406,0.563,1.957,0.719,2.633,0.877c0.638,0.15,2.508-0.285,2.597,0.364
				c0.022,0.157-0.452,0.162-0.581,0.255c-0.717,0.518-1.486,2.654-2.37,2.627c-0.42-0.013-0.696-1.084-1.048-1.314
				c-0.495-0.323-1.714-0.75-2.287-0.604c-2.077,0.527-6.312,3.732-6.242,5.874c0.009,0.263,0.838,0.408,0.814,0.67
				c-0.241,2.623-7.13,3.497-9.219,5.102c-2.48,1.906-7.296,6.211-8.671,9.021c-0.446,0.911-0.587,4.016-0.587,4.016
				s-6.682,4.064-8.696,5.709c-1.183,0.966-3.761,2.907-4.304,4.334c-0.772,2.028,2.271,7.45,0.474,8.666
				c-1.365,0.924-5.979-2.783-5.979-2.783s0.94-4.169,0.048-5.07c-2.926-2.953-12.585-0.96-16.628,0.007
				c-2.346,0.561-8.606,4.36-8.606,4.36s-3.017,5.071-3.747,6.892c-0.527,1.314-1.595,4.056-1.479,5.467
				c0.12,1.452,1.248,4.44,2.424,5.3c1.379,1.008,5.12,1.222,6.781,0.826c3.154-0.752,7.747-8.355,10.779-7.209
				c0.864,0.327,1.05,2.655,0.945,3.573c-0.2,1.747-4.068,4.638-3.291,6.215c0.92,1.868,6.818-0.147,8.211,1.401
				c2.124,2.36,0.814,12.674,0.814,12.674s8.567,2.874,11.252,1.909c2.569-0.923,4.557-7.378,7.141-8.259
				c2.094-0.714,6.814,0.562,8.671,1.763c1.096,0.708,1.869,3.676,3.047,4.237c1.88,0.895,6.815,0.955,8.313-0.491
				c0.444-0.429-0.305-2.157,0.234-2.459c1.108-0.622,3.619,1.381,4.567,2.227c1.788,1.594,3.065,6.911,5.158,8.077
				c1.943,1.082,6.979-1.006,8.895,0.123c1.425,0.84,2.808,4.159,3.286,5.743c0.508,1.685-0.579,5.608,0.467,7.023
				c1.007,1.362,4.749,1.809,6.332,2.411c0.878,0.334,2.59,1.163,3.513,1.338c3.05,0.576,9.714-1.412,12.413,0.12
				c1.519,0.862,2.266,4.885,3.639,5.965c1.135,0.893,4.778,0.512,5.501,1.762c0.631,1.091-0.525,3.786-1.061,4.926
				c-1.037,2.207-5.116,5.407-6.032,7.667c-1.601,3.951,0.292,13.225-1.76,16.962c-0.835,1.52-3.794,3.761-5.441,4.307
				c-1.92,0.636-6.32-1.228-8.086-0.242c-1.176,0.656-2.339,3.367-2.687,4.667c-0.003,0.01-0.001,0.032,0,0.042
				c0.251,2.233,2.485,6.572,1.994,8.765c-0.177,0.79-1.496,1.912-1.994,2.549c-1.7,2.174-5.284,6.39-6.799,8.697
				c-0.806,1.227-1.744,4.145-2.807,5.156c-1.685,1.602-8.38,4.028-8.38,4.028s-4.553-0.176-5.511,0.836
				c-0.404,0.426-0.558,1.852-0.227,2.338c0.565,0.832,3.337,0.255,3.866,1.11c0.337,0.544-0.164,1.953-0.467,2.517
				c-0.57,1.059-3.386,2.136-3.465,3.336c-0.056,0.844,1.351,2.268,2.107,2.646c0.932,0.466,3.467-0.656,4.165,0.117
				c0.541,0.599-0.069,2.43-0.233,3.22c-0.17,0.82-0.911,2.348-1.108,3.163c-0.153,0.631-0.59,1.968-0.357,2.574
				c0.722,1.881,5.592,3.26,6.163,5.192c0.2,0.676-0.25,2.282-0.82,2.696c-1.696,1.232-6.428,0.596-8.384-0.159
				c-2.585-0.997-6.596-5.142-8.35-7.287c-2.081-2.545-5.796-8.218-6.506-11.428c-0.598-2.702,0.91-11.034,0.91-11.034
				s-4.446-4.568-4.92-6.563c-0.652-2.749,3.494-8.729,1.993-11.123c-0.404-0.644-2.469-0.217-2.928-0.823
				c-3.643-4.808,0-24.129,0-24.129s-8.199-6.216-8.666-6.216c-0.468,0-3.58-0.229-4.333-1.05c-0.784-0.855-0.346-3.511-0.826-4.567
				c-1.765-3.889-10.654-13.355-10.654-13.355s0.894-3.584,1.054-4.802c0.255-1.948-0.599-6.129,0.347-7.851
				c1.083-1.971,6.455-3.101,7.373-5.153c0.904-2.02,0.546-7.259-1.053-8.789c-1.952-1.867-8.357,0.396-10.773-0.81
				c-2.861-1.428-8.433-9.613-8.433-9.613s-4.465-1.29-5.974-1.634c-0.957-0.218-3.283,0.085-3.86-0.708
				c-0.521-0.716,0.997-2.807,0.461-3.513c-0.751-0.99-3.981-1.516-4.92-0.701c-0.376,0.326,0.392,1.683,0,1.99
				c-2.494,1.952-9.716-1.21-12.299-3.043c-1.845-1.309-4.863-5.315-4.95-7.575c-0.04-1.046,2.068-2.625,2.016-3.67
				c-0.17-3.441-6.514-8.168-7.793-11.367c-0.782-1.955,0.263-6.95-1.34-8.315c-0.602-0.512-2.639-0.594-3.161,0
				c-1.344,1.531,0.351,6.168,1.053,8.08c0.854,2.325,4.896,5.888,5.386,8.316c0.165,0.818,0.093,2.801-0.586,3.287
				c-0.94,0.672-3.611-0.055-4.566-0.704c-2.297-1.56-4.891-6.902-5.619-9.582c-0.731-2.69,1.484-8.791,0-11.151
				c-0.864-1.375-5.854-2.815-5.854-2.815v-8.023c-7.242,16.953-11.257,35.6-11.257,55.168c0,77.729,63.239,140.969,140.969,140.969
				c0.106,0,0.21-0.004,0.316-0.004c43.94-0.049,83.209-20.413,109.013-52.104h-4.651c0,0,0.735-7.147,0-9.371
				c-0.707-2.142-5.374-7.246-5.374-7.246s1.081-8.668,0-11.269c-0.557-1.339-3.505-2.774-4.112-4.091
				c-0.492-1.068-0.591-3.538-0.354-4.69c0.568-2.752,5.215-9.959,5.215-9.959l-9.894-17.456c0,0,3.053-9.534,1.173-11.839
				c-1.415-1.735-6.885,0.036-8.906-0.927c-1.046-0.499-2.205-2.836-3.275-3.28c-1.381-0.573-4.587-0.545-5.979,0
				c-0.964,0.377-2.075,2.433-3.039,2.81c-2.455,0.961-8.377-1.499-10.546,0c-0.206,0.142-0.148,0.794-0.354,0.937
				c-1.205,0.833-5.858,0-5.858,0l-13.467-15.34c0,0-1.614-9.509,0.108-11.951c0.341-0.484,1.844-0.364,2.225-0.818
				c0.747-0.889,1.571-3.681,0.826-4.572c-0.506-0.606-2.532,0.48-3.159,0c-0.987-0.756-1.709-3.63-1.293-4.801
				c1.609-4.527,13.397-6.966,15.586-11.243c0.907-1.773-1.01-6.25,0-7.966c1.106-1.879,5.488-3.794,7.623-4.235
				c0.759-0.157,2.309,0.27,3.083,0.309c1.568,0.078,4.757,0.383,6.279,0c1.35-0.34,3.571-2.244,4.907-2.636
				c3.806-1.117,12.907-3.927,15.819-1.233c1.484,1.373-1.241,6.49,0,8.085c1.977,2.54,9.56,1.81,12.48,3.164
				c0.685,0.318,1.74,1.526,2.46,1.756c0.544,0.174,1.881,0.404,2.285,0c0.778-0.778-0.739-3.585,0-4.399
				c1.215-1.339,5.458-1.185,7.201-0.7c2.059,0.572,4.831,4.428,6.86,5.099c2.668,0.883,8.621,1.018,11.24,0
				c0.249-0.097,0.788-0.722,0.788-0.722C534.686,608.475,533.412,604.752,531.994,601.095z M465.426,560.974
				c0.169-0.568,0.803-1.653,1.293-1.986c0.976-0.663,3.642-1.587,4.627-0.937c1.199,0.791,0.635,4.292,1.168,5.626
				c0.434,1.087,1.77,3.039,2.465,3.981c0.369,0.501,1.126,1.52,1.635,1.879c0.655,0.461,2.788,0.388,2.986,1.164
				c0.271,1.058-1.841,2.837-2.807,3.345c-1.211,0.637-4.081,0.458-5.447,0.524c-1.024,0.049-3.411,0.758-4.1,0
				c-0.821-0.903-0.352-3.951,0.462-4.86c0.58-0.647,2.9,0.001,3.405-0.706c0.334-0.468,0.022-1.798-0.287-2.283
				c-0.504-0.79-2.389-1.48-3.173-1.993c-0.564-0.369-1.912-0.924-2.227-1.519C465.165,562.713,465.267,561.509,465.426,560.974z
				 M457.813,569.766c0.367-1.278,1.737-3.738,2.819-4.51c0.793-0.566,2.825-0.968,3.795-0.879c0.734,0.067,2.326,0.541,2.706,1.173
				c0.393,0.654,0.132,2.38-0.246,3.043c-0.878,1.542-4.102,3.562-5.793,4.1c-0.782,0.249-2.701,0.58-3.281,0
				C457.296,572.175,457.612,570.469,457.813,569.766z M381.227,587.102c-0.536,0.504-2.41,0.764-2.932,0.246
				c-0.363-0.36-0.032-1.563,0.156-2.039c0.193-0.488,0.795-1.577,1.317-1.637c0.556-0.063,1.551,0.863,1.758,1.383
				C381.717,585.535,381.603,586.747,381.227,587.102z M391.523,583.499c-0.414,0.286-1.63-0.16-2.006,0.174
				c-0.371,0.329-0.123,1.534-0.407,1.94c-0.261,0.372-1.113,0.817-1.544,0.96c-0.589,0.195-1.986,0.592-2.471,0.206
				c-0.459-0.365,0.051-0.853-0.144-1.023c-0.18-0.158-0.788,0.169-0.958,0c-0.368-0.368-0.368-1.715,0-2.083
				c0.713-0.713,3.202,0.569,4.035,0c0.477-0.326,0.365-1.821,0.838-2.151c0.329-0.23,1.204-0.069,1.604-0.033
				c0.467,0.043,1.63-0.041,1.838,0.38C392.507,582.273,391.895,583.242,391.523,583.499z"/>
		</g>
	</g>
	<path fill="#FC5959" d="M392.373,38c108.808,0,215.931,50.111,215.931,169.973c0,110.533-126.662,153.042-153.864,192.982
		c-20.422,29.71-13.601,71.456-69.71,71.456c-36.55,0-54.404-29.73-54.404-56.932c0-101.225,148.729-124.134,148.729-207.486
		c0-45.878-30.532-73.08-81.566-73.08c-108.808,0-66.32,112.178-148.729,112.178c-29.75,0-55.287-17.854-55.287-51.836
		C193.453,111.883,288.64,38,392.373,38z"/>
</g>
</svg>
